<svg width="100" height="100" viewBox="0 0 100 100" fill="none" xmlns="http://www.w3.org/2000/svg">
<rect width="100" height="100" rx="16" fill="#F2785C"/>
<path d="M35.4167 69.7548C33.4828 69.7548 31.6281 68.957 30.2607 67.537C28.8932 66.1169 28.125 64.1909 28.125 62.1827C28.125 60.1744 28.8932 58.2484 30.2607 56.8284C31.6281 55.4084 33.4828 54.6106 35.4167 54.6106C37.3505 54.6106 39.2052 55.4084 40.5727 56.8284C41.9401 58.2484 42.7083 60.1744 42.7083 62.1827C42.7083 64.1909 41.9401 66.1169 40.5727 67.537C39.2052 68.957 37.3505 69.7548 35.4167 69.7548ZM35.4167 51.3654C32.654 51.3654 30.0045 52.5051 28.051 54.5337C26.0975 56.5623 25 59.3138 25 62.1827C25 65.0516 26.0975 67.803 28.051 69.8317C30.0045 71.8603 32.654 73 35.4167 73C38.1793 73 40.8289 71.8603 42.7824 69.8317C44.7359 67.803 45.8333 65.0516 45.8333 62.1827C45.8333 59.3138 44.7359 56.5623 42.7824 54.5337C40.8289 52.5051 38.1793 51.3654 35.4167 51.3654ZM55.8333 47.0385H64.5833V43.1442H57.9167L53.875 36.0697C53.2708 34.988 52.0833 34.274 50.8333 34.274C49.8542 34.274 48.9583 34.6851 48.3333 35.3558L40.625 43.3389C39.9792 44.0096 39.5833 44.875 39.5833 45.9567C39.5833 47.3197 40.2708 48.4663 41.3542 49.137L48.3333 53.5288V64.3462H52.0833V50.2837L47.3958 46.7139L52.2292 41.6298L55.8333 47.0385ZM64.5833 69.7548C62.6495 69.7548 60.7948 68.957 59.4273 67.537C58.0599 66.1169 57.2917 64.1909 57.2917 62.1827C57.2917 60.1744 58.0599 58.2484 59.4273 56.8284C60.7948 55.4084 62.6495 54.6106 64.5833 54.6106C66.5172 54.6106 68.3719 55.4084 69.7393 56.8284C71.1068 58.2484 71.875 60.1744 71.875 62.1827C71.875 64.1909 71.1068 66.1169 69.7393 67.537C68.3719 68.957 66.5172 69.7548 64.5833 69.7548ZM64.5833 51.3654C61.8207 51.3654 59.1711 52.5051 57.2176 54.5337C55.2641 56.5623 54.1667 59.3138 54.1667 62.1827C54.1667 65.0516 55.2641 67.803 57.2176 69.8317C59.1711 71.8603 61.8207 73 64.5833 73C65.9513 73 67.3058 72.7202 68.5696 72.1766C69.8334 71.633 70.9818 70.8362 71.949 69.8317C72.9163 68.8272 73.6836 67.6347 74.2071 66.3223C74.7306 65.0099 75 63.6032 75 62.1827C75 60.7621 74.7306 59.3555 74.2071 58.0431C73.6836 56.7307 72.9163 55.5382 71.949 54.5337C70.9818 53.5292 69.8334 52.7324 68.5696 52.1888C67.3058 51.6452 65.9513 51.3654 64.5833 51.3654ZM58.3333 35.7885C60.4167 35.7885 62.0833 34.0577 62.0833 31.8942C62.0833 29.7308 60.4167 28 58.3333 28C56.25 28 54.5833 29.7308 54.5833 31.8942C54.5833 34.0577 56.25 35.7885 58.3333 35.7885Z" fill="white"/>
</svg>
