<svg width="30" height="30" viewBox="0 0 30 30" fill="none" xmlns="http://www.w3.org/2000/svg">
<path d="M20.0757 26.9325C20.4272 26.5809 20.6246 26.1041 20.6246 25.6069C20.6246 25.1097 20.4272 24.6329 20.0757 24.2813L10.7944 15L20.0757 5.71875C20.4172 5.36512 20.6062 4.89149 20.6019 4.39987C20.5976 3.90825 20.4005 3.43798 20.0528 3.09034C19.7052 2.7427 19.2349 2.54551 18.7433 2.54124C18.2517 2.53696 17.778 2.72595 17.4244 3.0675L6.81753 13.6744C6.46602 14.026 6.26855 14.5028 6.26855 15C6.26855 15.4972 6.46602 15.974 6.81753 16.3256L17.4244 26.9325C17.776 27.284 18.2528 27.4815 18.75 27.4815C19.2472 27.4815 19.724 27.284 20.0757 26.9325V26.9325Z" fill="#F2785C"/>
</svg>
