<svg width="40" height="41" viewBox="0 0 40 41" fill="none" xmlns="http://www.w3.org/2000/svg">
<path fill-rule="evenodd" clip-rule="evenodd" d="M2.5 20.5001C2.5 20.1686 2.6317 19.8507 2.86612 19.6162C3.10054 19.3818 3.41848 19.2501 3.75 19.2501H33.2325L25.365 11.3851C25.1303 11.1504 24.9984 10.8321 24.9984 10.5001C24.9984 10.1682 25.1303 9.84983 25.365 9.61511C25.5997 9.3804 25.9181 9.24854 26.25 9.24854C26.5819 9.24854 26.9003 9.3804 27.135 9.61511L37.135 19.6151C37.2514 19.7312 37.3438 19.8692 37.4068 20.021C37.4698 20.1729 37.5022 20.3357 37.5022 20.5001C37.5022 20.6645 37.4698 20.8273 37.4068 20.9792C37.3438 21.1311 37.2514 21.269 37.135 21.3851L27.135 31.3851C26.9003 31.6198 26.5819 31.7517 26.25 31.7517C25.9181 31.7517 25.5997 31.6198 25.365 31.3851C25.1303 31.1504 24.9984 30.8321 24.9984 30.5001C24.9984 30.1682 25.1303 29.8498 25.365 29.6151L33.2325 21.7501H3.75C3.41848 21.7501 3.10054 21.6184 2.86612 21.384C2.6317 21.1496 2.5 20.8316 2.5 20.5001Z" fill="white"/>
</svg>
