<svg width="100" height="100" viewBox="0 0 100 100" fill="none" xmlns="http://www.w3.org/2000/svg">
<rect width="100" height="100" rx="16" fill="#F2785C"/>
<path d="M37.7222 52.8889C38.6799 52.8889 39.5984 52.5084 40.2757 51.8312C40.9529 51.154 41.3333 50.2355 41.3333 49.2778C41.3333 48.3201 40.9529 47.4016 40.2757 46.7243C39.5984 46.0471 38.6799 45.6667 37.7222 45.6667C36.7645 45.6667 35.846 46.0471 35.1688 46.7243C34.4916 47.4016 34.1111 48.3201 34.1111 49.2778C34.1111 50.2355 34.4916 51.154 35.1688 51.8312C35.846 52.5084 36.7645 52.8889 37.7222 52.8889ZM53.6111 49.2778C53.6111 50.2355 53.2307 51.154 52.5534 51.8312C51.8762 52.5084 50.9577 52.8889 50 52.8889C49.0423 52.8889 48.1238 52.5084 47.4466 51.8312C46.7693 51.154 46.3889 50.2355 46.3889 49.2778C46.3889 48.3201 46.7693 47.4016 47.4466 46.7243C48.1238 46.0471 49.0423 45.6667 50 45.6667C50.9577 45.6667 51.8762 46.0471 52.5534 46.7243C53.2307 47.4016 53.6111 48.3201 53.6111 49.2778ZM62.2778 52.8889C63.2355 52.8889 64.154 52.5084 64.8312 51.8312C65.5084 51.154 65.8889 50.2355 65.8889 49.2778C65.8889 48.3201 65.5084 47.4016 64.8312 46.7243C64.154 46.0471 63.2355 45.6667 62.2778 45.6667C61.32 45.6667 60.4016 46.0471 59.7243 46.7243C59.0471 47.4016 58.6667 48.3201 58.6667 49.2778C58.6667 50.2355 59.0471 51.154 59.7243 51.8312C60.4016 52.5084 61.32 52.8889 62.2778 52.8889ZM41.3333 60.8333C41.3333 61.7911 40.9529 62.7096 40.2757 63.3868C39.5984 64.064 38.6799 64.4444 37.7222 64.4444C36.7645 64.4444 35.846 64.064 35.1688 63.3868C34.4916 62.7096 34.1111 61.7911 34.1111 60.8333C34.1111 59.8756 34.4916 58.9571 35.1688 58.2799C35.846 57.6027 36.7645 57.2222 37.7222 57.2222C38.6799 57.2222 39.5984 57.6027 40.2757 58.2799C40.9529 58.9571 41.3333 59.8756 41.3333 60.8333ZM50 64.4444C50.9577 64.4444 51.8762 64.064 52.5534 63.3868C53.2307 62.7096 53.6111 61.7911 53.6111 60.8333C53.6111 59.8756 53.2307 58.9571 52.5534 58.2799C51.8762 57.6027 50.9577 57.2222 50 57.2222C49.0423 57.2222 48.1238 57.6027 47.4466 58.2799C46.7693 58.9571 46.3889 59.8756 46.3889 60.8333C46.3889 61.7911 46.7693 62.7096 47.4466 63.3868C48.1238 64.064 49.0423 64.4444 50 64.4444ZM24 33.0278C24 30.6335 24.9511 28.3372 26.6442 26.6442C28.3372 24.9511 30.6335 24 33.0278 24H66.9722C69.3665 24 71.6628 24.9511 73.3558 26.6442C75.0489 28.3372 76 30.6335 76 33.0278V66.9722C76 69.3665 75.0489 71.6628 73.3558 73.3558C71.6628 75.0489 69.3665 76 66.9722 76H33.0278C30.6335 76 28.3372 75.0489 26.6442 73.3558C24.9511 71.6628 24 69.3665 24 66.9722V33.0278ZM33.0278 27.6111C31.5912 27.6111 30.2134 28.1818 29.1976 29.1976C28.1818 30.2134 27.6111 31.5912 27.6111 33.0278V35.5556H72.3889V33.0278C72.3889 31.5912 71.8182 30.2134 70.8024 29.1976C69.7866 28.1818 68.4088 27.6111 66.9722 27.6111H33.0278ZM27.6111 66.9722C27.6111 68.4088 28.1818 69.7866 29.1976 70.8024C30.2134 71.8182 31.5912 72.3889 33.0278 72.3889H66.9722C68.4088 72.3889 69.7866 71.8182 70.8024 70.8024C71.8182 69.7866 72.3889 68.4088 72.3889 66.9722V39.1667H27.6111V66.9722Z" fill="white"/>
</svg>
