<svg width="100" height="100" viewBox="0 0 100 100" fill="none" xmlns="http://www.w3.org/2000/svg">
<rect width="100" height="100" rx="16" fill="#F2785C"/>
<path d="M73.9305 70.9545C73.9305 71.497 73.7174 72.0173 73.3379 72.4009C72.9585 72.7845 72.4439 73 71.9074 73H35.4904C34.9539 73 34.4393 72.7845 34.0598 72.4009C33.6804 72.0173 33.4673 71.497 33.4673 70.9545C33.4673 70.4121 33.6804 69.8918 34.0598 69.5082C34.4393 69.1246 34.9539 68.9091 35.4904 68.9091H71.9074C72.4439 68.9091 72.9585 69.1246 73.3379 69.5082C73.7174 69.8918 73.9305 70.4121 73.9305 70.9545ZM80 50.5V56.6364C80 57.1789 79.7868 57.6991 79.4074 58.0827C79.028 58.4663 78.5134 58.6818 77.9768 58.6818H33.4167C31.24 58.6894 29.1194 57.9834 27.3731 56.6696C25.6268 55.3558 24.3488 53.5051 23.7308 51.3949L20.165 39.4034C19.9879 38.7898 19.9528 38.1431 20.0624 37.5136C20.1721 36.884 20.4235 36.2884 20.7972 35.7728C21.1794 35.2642 21.6727 34.8518 22.2387 34.5679C22.8046 34.2841 23.4278 34.1364 24.0596 34.1364H28.4094C28.7047 34.137 28.9963 34.2038 29.263 34.332C29.5298 34.4603 29.7651 34.6467 29.952 34.8779L34.403 40.2727H38.7528L36.4767 33.3949C36.2718 32.7789 36.215 32.1225 36.3111 31.4799C36.4071 30.8373 36.6531 30.2271 37.0288 29.6998C37.4046 29.1725 37.8991 28.7432 38.4716 28.4477C39.0441 28.1521 39.6779 27.9986 40.3207 28H44.5947C44.8756 27.9985 45.1537 28.057 45.4108 28.1715C45.6679 28.2861 45.8983 28.4542 46.0867 28.6648L56.6072 40.2727H69.8842C72.5671 40.2727 75.1401 41.3503 77.0372 43.2682C78.9342 45.1862 80 47.7876 80 50.5ZM75.9537 50.5C75.947 48.8746 75.3054 47.3177 74.1686 46.1684C73.0318 45.0191 71.4919 44.3704 69.8842 44.3637H55.7221C55.4411 44.3651 55.163 44.3067 54.9059 44.1922C54.6488 44.0776 54.4185 43.9095 54.23 43.6989L43.7095 32.0909H40.3207L43.4819 41.679C43.5809 41.9865 43.6073 42.3132 43.559 42.6328C43.5107 42.9525 43.389 43.2563 43.2037 43.5199C43.0169 43.7837 42.77 43.9981 42.4838 44.1449C42.1977 44.2918 41.8808 44.3668 41.5599 44.3637H33.4673C33.1719 44.363 32.8804 44.2962 32.6136 44.168C32.3469 44.0398 32.1115 43.8534 31.9246 43.6222L27.4737 38.2273H24.0343L27.6001 50.2188C27.9719 51.4853 28.7396 52.5959 29.7883 53.3841C30.8369 54.1723 32.11 54.5958 33.4167 54.5909H75.9537V50.5Z" fill="white"/>
</svg>
